<svg xmlns="http://www.w3.org/2000/svg" version="1.1" xmlns:xlink="http://www.w3.org/1999/xlink" xmlns:svgjs="http://svgjs.dev/svgjs" width="25" height="16"><svg width="25" height="16" viewBox="0 0 25 16" fill="none" xmlns="http://www.w3.org/2000/svg">
<g clip-path="url(#clip0_242_39)">
<path d="M0.704384 9.82222C2.56096 6.59339 7.67231 10.5055 7.67231 10.5055C7.67231 10.5055 2.50907 0.360596 7.81646 0.360596C13.1238 0.360596 12.5473 5.58438 12.1523 8.92276C11.6911 12.8118 9.14258 14.5703 6.917 14.9682C2.93285 15.6802 -0.693814 12.2583 0.707267 9.82222H0.704384Z" fill="#0267FF"></path>
<path d="M13.0982 9.82222C14.9548 6.59339 20.0662 10.5055 20.0662 10.5055C20.0662 10.5055 14.9029 0.360596 20.2103 0.360596C25.5177 0.360596 24.9411 5.58438 24.5462 8.92276C24.0849 12.8118 21.5364 14.5703 19.3109 14.9682C15.3267 15.6802 11.7 12.2583 13.1011 9.82222H13.0982Z" fill="#0267FF"></path>
</g>
<defs>
<clipPath id="SvgjsClipPath1001">
<rect width="25" height="16" fill="white"></rect>
</clipPath>
</defs>
</svg><style>@media (prefers-color-scheme: light) { :root { filter: none; } }
@media (prefers-color-scheme: dark) { :root { filter: none; } }
</style></svg>