<svg width="40" height="40" viewBox="0 0 40 40" fill="none" xmlns="http://www.w3.org/2000/svg">
<g clip-path="url(#clip0_240_7)">
<path d="M12.5248 24.1666H14.3005C24.352 24.1666 26.6667 17.4768 26.6667 12.5474V0H19.247V12.3554C19.247 15.9724 17.4396 18.245 13.5712 18.245H13.1907C8.08561 18.245 7.57828 14.724 7.48316 13.6677H0V13.8598C0 18.373 2.69521 24.1666 12.5248 24.1666Z" fill="#0267FF"/>
<path d="M25.8578 39.9997H27.6334C37.685 39.9997 39.9997 33.3098 39.9997 28.3805V15.833H32.5799V28.1884C32.5799 31.8054 30.7726 34.078 26.9042 34.078H26.5237C21.4186 34.078 20.9113 30.5571 20.8162 29.5008H13.333V29.6928C13.333 34.2061 16.0282 39.9997 25.8578 39.9997Z" fill="#F269AF"/>
</g>
<defs>
<clipPath id="clip0_240_7">
<rect width="40" height="40" fill="white"/>
</clipPath>
</defs>
</svg>
